<svg width="695" height="203" viewBox="0 0 695 203" fill="none" xmlns="http://www.w3.org/2000/svg">
<rect width="695" height="203" fill="url(#paint0_linear_786_224)"/>
<path d="M186.11 129.44V56.75H218.3C222.94 56.75 227.18 57.77 231.02 59.81C234.86 61.85 237.93 64.71 240.21 68.38C242.5 72.05 243.64 76.31 243.64 81.15C243.64 85.99 242.45 90.27 240.06 93.97C237.67 97.67 234.5 100.53 230.56 102.54L237.72 116.14C238.13 116.9 238.62 117.47 239.17 117.85C239.72 118.23 240.45 118.42 241.35 118.42H247.48V129.43H239.48C236.64 129.43 234.11 128.72 231.9 127.3C229.68 125.88 227.92 123.99 226.6 121.64L218.08 105.34C217.39 105.41 216.68 105.44 215.95 105.44H198.45V129.43H186.09L186.11 129.44ZM198.47 94.55H216.75C219.38 94.55 221.8 94.03 224.02 92.99C226.24 91.95 227.98 90.41 229.26 88.37C230.54 86.33 231.18 83.92 231.18 81.15C231.18 78.38 230.52 75.89 229.21 73.88C227.9 71.87 226.16 70.33 224.02 69.26C221.87 68.19 219.49 67.65 216.86 67.65H198.48V94.54L198.47 94.55Z" fill="white"/>
<path d="M281.02 129.442C275.07 129.442 269.86 128.322 265.39 126.072C260.92 123.822 257.45 120.712 254.95 116.722C252.46 112.742 251.21 108.152 251.21 102.962C251.21 97.4922 252.32 92.6822 254.53 88.5322C256.74 84.3822 259.79 81.1222 263.67 78.7722C267.55 76.4222 272.01 75.2422 277.07 75.2422C282.75 75.2422 287.42 76.4522 291.09 78.8722C294.76 81.2922 297.47 84.5522 299.24 88.6322C301.01 92.7222 301.89 97.2822 301.89 102.342C301.89 103.032 301.85 103.832 301.79 104.732C301.72 105.632 301.62 106.322 301.48 106.812H263.89C264.3 109.582 265.31 111.882 266.9 113.722C268.49 115.562 270.5 116.942 272.92 117.872C275.34 118.812 278.04 119.272 281.02 119.272H295.25V129.452H281.02V129.442ZM263.78 98.7022H289.95C289.88 97.3922 289.69 96.0722 289.38 94.7522C289.07 93.4422 288.58 92.1922 287.93 91.0122C287.27 89.8322 286.44 88.8122 285.44 87.9522C284.44 87.0922 283.24 86.3922 281.86 85.8722C280.47 85.3522 278.88 85.0922 277.08 85.0922C275 85.0922 273.17 85.4922 271.58 86.2822C269.99 87.0822 268.64 88.1122 267.53 89.3922C266.42 90.6722 265.57 92.1322 264.98 93.7522C264.39 95.3822 263.99 97.0222 263.79 98.6822L263.78 98.7022Z" fill="white"/>
<path d="M312.8 129.44V119.26H338.34C339.59 119.26 340.68 118.98 341.61 118.43C342.54 117.88 343.27 117.15 343.79 116.25C344.31 115.35 344.57 114.42 344.57 113.45C344.57 112.34 344.33 111.37 343.84 110.54C343.35 109.71 342.66 109.03 341.76 108.51C340.86 107.99 339.82 107.73 338.65 107.73H328.27C324.88 107.73 321.87 107.18 319.24 106.07C316.61 104.96 314.53 103.25 313.01 100.93C311.49 98.6105 310.73 95.6905 310.73 92.1605C310.73 89.3205 311.44 86.7305 312.86 84.3705C314.28 82.0205 316.2 80.1105 318.62 78.6605C321.04 77.2105 323.78 76.4805 326.82 76.4805H351.43V86.6605H327.96C326.37 86.6605 325.05 87.1605 324.01 88.1705C322.97 89.1705 322.45 90.4005 322.45 91.8605C322.45 93.3205 322.97 94.4605 324.01 95.4905C325.05 96.5305 326.43 97.0505 328.16 97.0505H338.23C342.03 97.0505 345.29 97.6405 347.99 98.8105C350.69 99.9905 352.75 101.75 354.17 104.11C355.59 106.46 356.3 109.44 356.3 113.04C356.3 115.95 355.57 118.66 354.12 121.19C352.67 123.72 350.67 125.72 348.15 127.21C345.62 128.7 342.77 129.44 339.58 129.44H312.79H312.8Z" fill="white"/>
<path d="M380.08 76.4805H368.14V129.44H380.08V76.4805Z" fill="white"/>
<path d="M394.41 129.441V53.6406H406.35V129.441H394.41Z" fill="white"/>
<path d="M432.62 76.4805H420.68V129.44H432.62V76.4805Z" fill="white"/>
<path d="M473.74 129.442C467.79 129.442 462.58 128.322 458.11 126.072C453.64 123.822 450.17 120.712 447.67 116.722C445.18 112.742 443.93 108.152 443.93 102.962C443.93 97.4922 445.04 92.6822 447.25 88.5322C449.46 84.3822 452.51 81.1222 456.39 78.7722C460.27 76.4222 464.73 75.2422 469.79 75.2422C475.47 75.2422 480.14 76.4522 483.81 78.8722C487.48 81.2922 490.19 84.5522 491.96 88.6322C493.73 92.7222 494.61 97.2822 494.61 102.342C494.61 103.032 494.57 103.832 494.51 104.732C494.44 105.632 494.34 106.322 494.2 106.812H456.61C457.02 109.582 458.03 111.882 459.62 113.722C461.21 115.562 463.22 116.942 465.64 117.872C468.06 118.812 470.76 119.272 473.74 119.272H487.97V129.452H473.74V129.442ZM456.5 98.7022H482.67C482.6 97.3922 482.41 96.0722 482.1 94.7522C481.79 93.4422 481.3 92.1922 480.65 91.0122C479.99 89.8322 479.16 88.8122 478.16 87.9522C477.16 87.0922 475.96 86.3922 474.58 85.8722C473.19 85.3522 471.6 85.0922 469.8 85.0922C467.72 85.0922 465.89 85.4922 464.3 86.2822C462.71 87.0822 461.36 88.1122 460.25 89.3922C459.14 90.6722 458.29 92.1322 457.7 93.7522C457.11 95.3822 456.71 97.0222 456.51 98.6822L456.5 98.7022Z" fill="white"/>
<path d="M505.72 129.442V98.9122C505.72 94.3422 506.76 90.2822 508.84 86.7122C510.92 83.1522 513.86 80.3422 517.66 78.3022C521.47 76.2622 525.93 75.2422 531.06 75.2422C536.19 75.2422 540.63 76.2622 544.4 78.3022C548.17 80.3422 551.1 83.1522 553.17 86.7122C555.25 90.2822 556.28 94.3422 556.28 98.9122V129.442H544.44V99.0122C544.44 96.3122 543.82 93.9422 542.57 91.9022C541.32 89.8622 539.68 88.2722 537.64 87.1222C535.6 85.9822 533.36 85.4122 530.94 85.4122C528.52 85.4122 526.39 85.9822 524.35 87.1222C522.31 88.2622 520.68 89.8622 519.47 91.9022C518.26 93.9422 517.65 96.3122 517.65 99.0122V129.442H505.71H505.72Z" fill="white"/>
<path d="M564.7 86.6614V76.4814H602.19V86.6614H564.7ZM588.89 129.441C584.18 129.441 580.5 128.091 577.83 125.391C575.16 122.691 573.83 119.021 573.83 114.381V63.1914H585.67V113.861C585.67 115.451 586.15 116.751 587.12 117.751C588.09 118.751 589.37 119.261 590.96 119.261H602.07V129.441H588.88H588.89Z" fill="white"/>
<path d="M641.13 129.442C635.18 129.442 629.97 128.322 625.5 126.072C621.03 123.822 617.56 120.712 615.06 116.722C612.57 112.742 611.32 108.152 611.32 102.962C611.32 97.4922 612.43 92.6822 614.64 88.5322C616.85 84.3822 619.9 81.1222 623.78 78.7722C627.66 76.4222 632.12 75.2422 637.18 75.2422C642.86 75.2422 647.53 76.4522 651.2 78.8722C654.87 81.2922 657.58 84.5522 659.35 88.6322C661.12 92.7222 662 97.2822 662 102.342C662 103.032 661.96 103.832 661.9 104.732C661.83 105.632 661.73 106.322 661.59 106.812H624C624.41 109.582 625.42 111.882 627.01 113.722C628.6 115.562 630.61 116.942 633.03 117.872C635.45 118.812 638.15 119.272 641.13 119.272H655.36V129.452H641.13V129.442ZM623.89 98.7022H650.06C649.99 97.3922 649.8 96.0722 649.49 94.7522C649.18 93.4422 648.69 92.1922 648.04 91.0122C647.38 89.8322 646.55 88.8122 645.55 87.9522C644.55 87.0922 643.35 86.3922 641.97 85.8722C640.58 85.3522 638.99 85.0922 637.19 85.0922C635.11 85.0922 633.28 85.4922 631.69 86.2822C630.1 87.0822 628.75 88.1122 627.64 89.3922C626.53 90.6722 625.68 92.1322 625.09 93.7522C624.5 95.3822 624.1 97.0222 623.9 98.6822L623.89 98.7022Z" fill="white"/>
<path fill-rule="evenodd" clip-rule="evenodd" d="M101.3 122.531C101.3 122.531 86.69 147.531 61.63 145.361C50.25 144.371 31 126.711 31 94.1407C30.99 71.5707 57.1 37.0107 94.2 36.0207C131.3 35.0307 156.89 69.6807 156.89 97.0907C156.89 129.811 133.72 145.901 133.1 145.901C132.48 145.901 131.48 146.101 131.12 145.351C133.11 143.361 151 128.661 151 97.0707C151 69.2807 127.32 50.0707 101.3 48.7907C69.29 47.2207 46.6 74.1707 46.37 97.4007C46.2 114.591 51.71 130.511 61.62 130.941C81.23 131.791 82.88 109.941 81.01 105.541C79.68 102.401 72.69 96.0307 65.89 94.1207C64.99 94.6807 63.98 95.0907 62.87 95.2807C58.25 96.1107 53.82 93.0307 52.99 88.4107C52.16 83.7907 55.24 79.3607 59.86 78.5307C64.48 77.7007 68.91 80.7807 69.74 85.4007C69.88 86.2107 69.91 87.0107 69.83 87.7907L69.85 87.7607C73.49 91.9907 78.84 95.4107 85.09 97.3907C87.45 98.1407 88.67 97.1707 89.22 94.3907C90.27 89.0707 91.27 82.5907 89.22 75.8707C88.26 75.4207 87.37 74.7807 86.61 73.9607C83.42 70.5207 83.62 65.1307 87.06 61.9407C90.5 58.7507 95.89 58.9507 99.08 62.3907C102.27 65.8307 102.07 71.2207 98.63 74.4107C98.03 74.9707 97.37 75.4207 96.67 75.7707H96.7C95.1 81.1407 95.02 88.0307 96.76 94.3807C98.27 96.7807 99.61 97.2207 102.51 94.3807C102.51 94.3807 116.21 83.6507 119.28 77.3307C118.88 76.3507 118.67 75.2807 118.67 74.1607C118.67 69.4607 122.48 65.6507 127.18 65.6507C131.88 65.6507 135.69 69.4607 135.69 74.1607C135.69 78.8607 131.88 82.6707 127.18 82.6707C126.36 82.6707 125.57 82.5507 124.82 82.3407L124.84 82.3607C120.01 85.2107 113.66 93.3407 108.62 98.7607C106.78 100.741 106.07 103.641 109.81 104.611C109.81 104.611 120.91 107.351 127.75 105.551C128.24 104.611 128.91 103.751 129.76 103.021C133.32 99.9607 138.7 100.371 141.76 103.931C144.82 107.491 144.41 112.871 140.85 115.931C137.29 118.991 131.91 118.581 128.85 115.021C128.32 114.401 127.89 113.721 127.56 113.011V113.041C122.25 111.241 109.81 112.381 109.81 112.381C106.27 112.281 106.06 114.491 106.84 116.231C108.39 121.261 111.84 126.701 117.43 130.941C118.47 130.741 119.56 130.741 120.66 130.961C125.27 131.871 128.26 136.361 127.35 140.961C126.44 145.571 121.95 148.561 117.35 147.651C112.74 146.741 109.75 142.251 110.66 137.651C110.82 136.851 111.09 136.091 111.45 135.401L111.42 135.421C109.56 130.131 106.41 126.671 101.27 122.541L101.3 122.531Z" fill="white"/>
<defs>
<linearGradient id="paint0_linear_786_224" x1="-0.0551911" y1="101.489" x2="694.945" y2="101.489" gradientUnits="userSpaceOnUse">
<stop stop-color="#E30613"/>
<stop offset="0.11" stop-color="#E30B13"/>
<stop offset="0.25" stop-color="#E41C15"/>
<stop offset="0.42" stop-color="#E73718"/>
<stop offset="0.53" stop-color="#E94E1B"/>
<stop offset="0.82" stop-color="#EF7A09"/>
<stop offset="1" stop-color="#F39200"/>
</linearGradient>
</defs>
</svg>
