<svg width="695" height="203" viewBox="0 0 695 203" fill="none" xmlns="http://www.w3.org/2000/svg">
<rect width="695" height="203" fill="#1ED760"/>
<path d="M91.9904 98.7313C91.9904 98.7313 91.9904 98.7113 91.9704 98.6913L108.55 81.8513C108.55 81.8513 108.59 81.8513 108.59 81.8713C108.55 83.6613 108.73 85.4513 109.13 87.1913C109.44 89.6713 111.42 90.9013 113.84 90.2213L115.11 90.1713C118.56 90.4113 123.01 87.3713 123.35 87.1313C123.36 87.1313 123.37 87.1313 123.38 87.1313C123.45 87.3013 123.95 88.4113 124.86 88.8113C126.28 89.4213 126.81 88.6413 127.51 89.8013C127.51 89.8413 127.51 89.8713 127.51 89.9113C127.08 90.4313 126.85 91.1213 126.94 91.8413C126.94 91.8813 126.96 91.9113 126.97 91.9513C126.98 92.0413 127.01 92.1213 127.03 92.2113C127.04 92.2613 127.05 92.3213 127.07 92.3713C127.22 92.8413 127.51 93.2513 127.91 93.5413C127.94 93.5613 127.97 93.5813 128 93.5913C128.07 93.6313 128.13 93.6813 128.2 93.7213C128.25 93.7513 128.31 93.7713 128.37 93.8013C128.38 93.8013 128.4 93.8113 128.41 93.8213C128.52 93.8713 128.63 93.9113 128.74 93.9513C128.8 93.9713 128.86 93.9913 128.92 94.0013C128.97 94.0113 129.02 94.0213 129.07 94.0313C129.77 94.1613 130.53 94.1013 131.35 93.2313C131.82 92.7413 132.13 92.0913 132.1 91.4013C132.03 89.8913 130.69 88.7813 129.22 88.9713C129.16 88.9713 129.11 89.0013 129.06 89.0113C128.98 89.0213 128.91 89.0413 128.83 89.0613C128.79 89.0713 128.75 89.0813 128.71 89.0913C128.62 88.8613 128.48 88.6513 128.3 88.4513C126.44 85.8813 128.81 84.8913 131.19 84.4613C131.52 84.4013 132.17 84.3813 132.19 84.3813C132.42 84.9813 132.87 85.4613 133.43 85.7413C133.87 85.9613 134.37 86.0613 134.9 85.9913C136.26 85.8213 137.23 84.6113 137.13 83.2513C137.13 83.2113 137.13 83.1613 137.13 83.1213C137.06 82.5413 136.79 82.0413 136.41 81.6513C136.3 81.5413 136.19 81.4413 136.06 81.3513C136 81.3113 135.94 81.2713 135.88 81.2413C135.41 80.9613 134.85 80.8213 134.27 80.9013C133.18 81.0413 132.35 81.8413 132.1 82.8413C131.75 82.9013 129.77 83.1413 128.84 83.2013C126.46 83.0013 127.85 80.7013 129.03 79.8213C129.29 79.5713 130.05 79.2313 130.32 79.1013C130.49 79.2313 130.69 79.3413 130.89 79.4213C131.29 79.5913 131.74 79.6713 132.21 79.6213C132.25 79.6213 132.29 79.6013 132.33 79.5913C133.67 79.3613 134.61 78.1213 134.44 76.7513C134.33 75.8813 133.8 75.1713 133.08 74.8013C132.67 74.5913 132.19 74.4913 131.7 74.5313C131.66 74.5313 131.62 74.5313 131.58 74.5313C130.18 74.7113 129.19 75.9813 129.35 77.3813C128.16 78.4413 124.26 82.1213 124.47 77.6313C124.49 77.2513 124.52 76.8713 124.48 76.4913C124.48 76.4713 124.48 76.4613 124.47 76.4513C124.47 76.4513 124.47 76.4513 124.48 76.4513C125.76 76.1713 126.65 74.9613 126.48 73.6413C126.33 72.4513 125.38 71.5613 124.24 71.4213C123.62 71.3513 122.97 71.4213 122.25 72.1613C121.51 72.9213 121.16 74.0513 121.6 75.0113C121.84 75.5313 122.24 75.9513 122.73 76.2113C122.73 76.2113 122.73 76.2213 122.74 76.2313C122.73 77.1413 122.99 78.0613 122.66 78.9413C122.15 80.2313 120.91 81.6413 121.9 83.5413C121.95 83.6313 118.44 85.1613 117.25 84.6513C116.88 84.4913 116.41 83.8013 116.18 83.4713C112.7 78.6913 121.55 74.8713 113.93 69.8113C113.22 69.3413 112.58 68.4613 114.73 67.7513C115.55 67.4813 119.59 66.2113 119.93 66.0913C127.01 63.6213 131.73 56.2413 135.6 49.8213C138.4 45.1713 139.13 40.1913 139.62 37.1013C140 34.7313 138.39 32.4513 136.01 32.0913C133.94 31.7813 131.59 32.2713 130.34 33.4013C127.68 35.3213 124.7 36.7713 121.94 38.4513C120.95 37.6613 119.62 37.2813 118.18 37.6813C116.94 38.0213 115.91 38.9713 115.43 40.1713C114.91 41.5013 115.11 42.7313 115.66 43.7313C115.58 43.8313 115.5 43.9313 115.42 44.0313C113.27 47.0013 111.05 49.8013 110.52 53.2813C109.61 59.2013 104.68 60.2713 101.85 62.0213C101.85 62.0213 101.84 62.0213 101.83 62.0213C101.24 61.1213 100.37 60.4113 99.3304 59.9713C96.0204 58.2613 88.3904 64.0113 87.9604 59.6513C87.8304 58.3613 88.3804 54.8613 88.4804 54.9013C90.4904 55.6413 91.7304 54.2413 92.9504 53.5713C93.7804 53.1313 94.7304 53.2713 95.6204 53.1513C95.6204 53.1513 95.6304 53.1513 95.6404 53.1513C95.9604 53.6013 96.4304 53.9513 96.9704 54.1213C97.9904 54.4413 99.0604 53.9513 99.7204 53.1213C100.37 52.3113 100.36 51.6513 100.21 51.0513C99.9304 49.9413 98.9304 49.1113 97.7304 49.1113C96.3904 49.1113 95.3004 50.1413 95.1904 51.4513C95.1904 51.4513 95.1904 51.4513 95.1904 51.4613C95.1704 51.4613 95.1604 51.4613 95.1404 51.4613C94.7604 51.4713 94.3904 51.5513 94.0104 51.6113C89.5804 52.3813 92.7404 48.0513 93.6504 46.7413C95.0604 46.7413 96.2004 45.5913 96.2004 44.1813C96.2004 44.1413 96.1904 44.1013 96.1904 44.0613C96.1704 43.5713 96.0104 43.1113 95.7504 42.7313C95.2904 42.0613 94.5204 41.6213 93.6404 41.6213C92.2604 41.6213 91.1504 42.7013 91.0904 44.0613C91.0904 44.1013 91.0804 44.1413 91.0804 44.1813C91.0804 44.6513 91.2204 45.0913 91.4404 45.4713C91.5504 45.6613 91.6804 45.8413 91.8304 45.9913C91.7304 46.2813 91.5004 47.0713 91.2804 47.3613C90.5604 48.6413 88.4404 50.3013 87.9504 47.9713C87.8904 47.0413 87.8904 45.0513 87.9004 44.6913C88.8704 44.3213 89.5604 43.3913 89.5604 42.3013C89.5604 41.7113 89.3504 41.1713 89.0204 40.7413C88.9804 40.6813 88.9304 40.6313 88.8804 40.5813C88.7804 40.4713 88.6604 40.3713 88.5404 40.2713C88.1104 39.9413 87.5804 39.7413 86.9904 39.7413C86.9504 39.7413 86.9004 39.7413 86.8604 39.7413C85.5004 39.8113 84.4204 40.9213 84.4204 42.2913C84.4204 42.8213 84.5804 43.3113 84.8504 43.7113C85.2004 44.2313 85.7304 44.6213 86.3604 44.7713C86.3604 44.7913 86.4304 45.4413 86.4104 45.7813C86.2804 48.1913 85.5904 50.6713 82.8104 49.1413C82.6004 48.9913 82.3704 48.8813 82.1304 48.8213C82.1304 48.7813 82.1404 48.7413 82.1504 48.7013C82.1604 48.6213 82.1704 48.5413 82.1704 48.4713C82.1704 48.4213 82.1904 48.3613 82.1904 48.3113C82.1904 46.8213 80.9304 45.6313 79.4204 45.7513C78.7404 45.8013 78.1304 46.2013 77.7004 46.7213C76.9404 47.6513 76.9704 48.4113 77.1904 49.0913C77.2104 49.1413 77.2204 49.1913 77.2404 49.2413C77.2604 49.3013 77.2904 49.3513 77.3204 49.4113C77.3704 49.5213 77.4304 49.6313 77.4904 49.7213C77.4904 49.7313 77.5104 49.7413 77.5104 49.7613C77.5404 49.8113 77.5704 49.8713 77.6104 49.9113C77.6504 49.9813 77.7104 50.0313 77.7604 50.0913C77.7804 50.1213 77.8004 50.1413 77.8304 50.1713C78.1604 50.5213 78.6104 50.7613 79.0904 50.8613C79.1404 50.8713 79.2004 50.8713 79.2504 50.8813C79.3404 50.8913 79.4304 50.9013 79.5104 50.9113C79.5504 50.9113 79.5904 50.9213 79.6204 50.9213C80.3504 50.9213 81.0004 50.6113 81.4604 50.1213C81.4904 50.1213 81.5304 50.1113 81.5704 50.1013C82.8004 50.6513 82.0904 51.2713 82.8804 52.6013C83.3804 53.4513 84.5404 53.8113 84.7304 53.8613C84.7404 53.8613 84.7504 53.8813 84.7404 53.8913C84.5304 54.1913 82.1604 57.7013 82.7604 62.4513C83.7104 70.0013 94.0404 68.2213 94.8404 68.2313C94.8604 68.2313 94.8704 68.2613 94.8504 68.2713L80.5304 82.5913L72.4704 90.6713L64.3704 98.7513C57.1704 105.951 62.2704 118.251 72.4504 118.251H94.9904C94.9904 118.251 95.0004 118.271 95.0104 118.291L67.4304 173.431L86.9304 153.931L95.0304 145.851L103.09 137.771C106.96 133.901 118.56 122.301 122.61 118.251L142.11 98.7513H92.0104L91.9904 98.7313ZM128.09 44.1713C130.06 44.5413 131.67 46.1613 132.05 48.1313C132.72 51.6813 129.67 54.7313 126.12 54.0613C124.15 53.6913 122.54 52.0713 122.16 50.1013C121.49 46.5513 124.54 43.5013 128.09 44.1713Z" fill="white"/>
<path d="M210.85 116.661C206.53 120.811 199.93 123.671 187.31 123.671C184.7 123.671 178.1 123.671 170.94 121.801C169.96 121.561 164.42 120.331 161.33 116.911C159.29 114.711 158.56 112.021 158.32 109.171L177.71 108.271C178.04 109.491 178.36 110.061 178.77 110.551C180.73 112.751 185.12 113.401 187.65 113.401C190.83 113.401 192.94 112.751 194 111.931C194.98 111.201 195.22 110.061 195.22 109.571C195.22 108.841 194.81 108.101 194.16 107.701C192.29 106.481 186.5 105.991 180.23 104.931C177.3 104.441 174.45 103.871 171.59 103.061C168.49 102.251 164.99 101.191 162.79 98.7408C161.73 97.6008 160.35 95.3208 160.35 91.6508C160.35 84.4808 166.22 81.7108 168.25 80.7308C172.16 78.9408 177.78 77.6309 187.31 77.6309C200.34 77.6309 207.51 80.8108 211.42 85.5308C211.83 86.0208 213.05 87.5708 213.86 89.3608C214.1 89.9308 214.35 90.7408 214.67 92.0508L195.61 92.8708C195.45 92.0508 195.37 91.9709 195.12 91.5709C194.06 89.7009 190.88 88.0708 186.08 88.1508C182.01 88.1508 179.24 89.4508 179.24 91.6508C179.24 91.9808 179.32 92.7108 180.05 93.2808C181.84 94.7508 189.17 95.4008 191.37 95.6408C194.55 96.0508 197.72 96.4509 200.82 96.9409C201.23 97.0209 206.77 97.7508 209.86 99.4708C214.34 102.001 214.75 106.231 214.75 108.021C214.75 110.141 214.34 113.231 210.84 116.661H210.85Z" fill="white"/>
<path d="M274.721 114.791C272.031 118.461 266.251 123.831 255.251 123.831C246.861 123.831 242.461 120.731 239.531 118.701V137.361H220.471V79.1108H239.531V83.4308C240.511 82.6208 241.321 81.9608 242.381 81.3108C244.421 80.0108 248.821 78.0508 255.171 78.0508C257.861 78.0508 266.581 78.4608 272.851 84.7308C278.551 90.5108 278.961 98.6608 278.961 101.101C278.961 103.301 278.721 109.411 274.721 114.791ZM256.061 93.1208C254.021 91.4108 251.741 90.9207 249.051 91.0807C241.071 91.4907 239.521 97.8408 239.521 100.691C239.521 101.261 239.601 102.811 240.251 104.441C242.451 109.981 247.831 110.471 249.701 110.471C250.601 110.471 252.881 110.471 255.081 109.171C259.151 106.811 259.481 102.081 259.481 100.701C259.481 99.4007 259.241 95.6508 256.061 93.1208Z" fill="white"/>
<path d="M303.07 103.383C303.15 103.873 303.4 104.933 303.97 106.153C306.74 112.023 313.26 112.593 315.05 112.593C318.8 112.593 321.97 110.963 322.95 110.233C323.76 109.663 324.5 108.933 324.74 108.683L344.78 109.663C343.97 111.293 342.25 114.223 338.59 116.993C338.02 117.483 336.39 118.623 334.44 119.603C326.62 123.353 316.19 123.513 314.15 123.513C304.86 123.513 293.95 121.393 287.67 113.733C285.88 111.533 283.19 107.463 283.19 100.453C283.19 98.1725 283.52 92.5526 287.51 87.5026C289.22 85.3826 291.09 84.0026 291.91 83.4326C296.47 80.2526 302.34 77.8125 314.31 77.8925C323.43 77.8925 333.13 79.2726 339.81 86.2826C341.03 87.5826 343.72 90.6826 345.02 95.4926C345.75 98.1826 345.83 100.623 345.92 103.393H303.07V103.383ZM314.72 88.9625C313.42 88.9625 308.53 89.0426 305.51 92.6326C304.53 93.8526 304.29 94.5025 303.72 95.8925H325.72C324.66 92.9625 321.97 88.9726 314.72 88.9726V88.9625Z" fill="white"/>
<path d="M369.21 103.383C369.29 103.873 369.54 104.933 370.11 106.153C372.88 112.023 379.4 112.593 381.19 112.593C384.94 112.593 388.11 110.963 389.09 110.233C389.9 109.663 390.64 108.933 390.88 108.683L410.92 109.663C410.11 111.293 408.39 114.223 404.73 116.993C404.16 117.483 402.53 118.623 400.57 119.603C392.75 123.353 382.32 123.513 380.29 123.513C371 123.513 360.09 121.393 353.81 113.733C352.02 111.533 349.33 107.463 349.33 100.453C349.33 98.1725 349.66 92.5526 353.65 87.5026C355.36 85.3826 357.23 84.0026 358.05 83.4326C362.61 80.2526 368.48 77.8125 380.45 77.8925C389.57 77.8925 399.27 79.2726 405.95 86.2826C407.17 87.5826 409.86 90.6826 411.16 95.4926C411.89 98.1826 411.97 100.623 412.06 103.393H369.21V103.383ZM380.86 88.9625C379.56 88.9625 374.67 89.0426 371.65 92.6326C370.67 93.8526 370.43 94.5025 369.86 95.8925H391.86C390.8 92.9625 388.11 88.9726 380.86 88.9726V88.9625Z" fill="white"/>
<path d="M441.55 110.062H469.74V122.282H415.16V109.982L443.59 91.1616H417.36V79.1016H469.99V91.2416L441.56 110.062H441.55Z" fill="white"/>
<path d="M515.441 122.281C514.951 120.321 514.871 120.161 514.711 118.121C511.781 119.421 503.301 123.501 493.281 123.501C479.271 123.501 474.301 116.331 474.301 109.651C474.301 108.591 474.461 105.171 476.501 102.401C478.941 98.9808 483.511 97.5108 484.481 97.2708C491.891 95.0708 506.801 94.9108 514.381 94.7408C514.381 93.3608 514.301 92.3808 513.481 91.2408C511.611 88.8808 507.701 88.6309 505.091 88.6309C502.481 88.6309 497.431 88.9609 495.401 91.0709C494.911 91.5609 494.831 91.8908 494.591 92.5408H476.101C476.511 90.1808 477.481 84.2308 483.681 81.0508C487.511 79.0908 494.351 77.6309 504.451 77.6309C506.001 77.6309 513.821 77.6308 520.091 78.8508C521.231 79.0908 526.361 79.8308 529.541 83.0908C533.371 86.9208 533.041 91.8109 533.041 93.4409V116.011C533.041 119.841 533.851 120.821 535.401 122.281H515.441ZM501.841 103.221C498.011 103.551 495.891 103.951 494.671 105.421C494.341 105.751 493.771 106.561 493.771 107.781C493.771 108.761 494.181 109.411 494.341 109.651C495.241 111.031 497.031 112.091 500.451 112.091C502.001 112.091 505.661 111.761 509.411 109.731C509.821 109.491 511.451 108.591 512.591 107.291C513.891 105.821 514.221 104.441 514.631 102.481C510.391 102.731 506.081 102.811 501.841 103.211V103.221Z" fill="white"/>
<path d="M570.75 94.9913C569.77 94.9913 568.79 95.0712 567.9 95.1512C566.92 95.2312 562.69 95.5613 561.06 98.9813C560.41 100.281 560.33 101.591 560.33 102.971V122.281H541.19V79.1013H560.42V85.9413C563.6 80.9713 568.89 79.2612 570.77 78.7712C571.83 78.5212 573.05 78.3612 575.33 78.2812V95.3113C573.78 95.1513 572.32 94.9813 570.77 94.9813L570.75 94.9913Z" fill="white"/>
<path d="M615.881 122.282V118.042C614.331 119.182 613.761 119.592 612.781 120.082C610.821 121.142 605.861 123.262 599.581 123.262C591.761 123.262 586.631 120.082 584.261 118.212C583.041 117.152 581.081 115.362 579.371 111.942C577.581 108.522 576.681 104.692 576.681 100.862C576.681 98.8217 577.011 93.0417 580.351 87.7417C582.711 83.9917 588.501 77.6417 599.901 77.7217C608.701 77.7217 612.941 81.1417 615.871 83.4217V64.7617H635.101V122.282H615.871H615.881ZM615.071 96.0517C614.091 93.9317 611.651 90.7617 606.031 90.7617C600.081 90.7617 595.931 94.2617 595.931 100.452C595.931 101.262 595.931 102.892 596.741 104.852C598.291 108.602 601.871 110.552 605.861 110.552C611.811 110.552 615.881 106.312 615.881 100.452C615.881 99.8017 615.881 97.8417 615.071 96.0517Z" fill="white"/>
</svg>
